<svg version="1.1" id="Layer_1" xmlns="http://www.w3.org/2000/svg" xmlns:xlink="http://www.w3.org/1999/xlink" x="0px" y="0px"
	 width="100%" viewBox="0 0 225 225" enable-background="new 0 0 225 225" xml:space="preserve">
<path fill="#303030" opacity="1.000000" stroke="none" 
	d="
M156.000000,226.000000 
	C104.000000,226.000000 52.500008,226.000000 1.000007,226.000000 
	C1.000005,151.000000 1.000005,76.000015 1.000002,1.000017 
	C75.999992,1.000011 150.999985,1.000011 225.999969,1.000006 
	C225.999985,75.999985 225.999985,150.999969 226.000000,225.999969 
	C202.833328,226.000000 179.666672,226.000000 156.000000,226.000000 
M82.439796,82.093063 
	C82.439796,66.295158 82.439796,50.497253 82.439796,34.442543 
	C71.412987,34.442543 61.005119,34.442543 50.326958,34.442543 
	C50.326958,87.219421 50.326958,139.771271 50.326958,192.559937 
	C61.053501,192.559937 71.456947,192.559937 82.505188,192.559937 
	C81.274673,174.163452 93.586967,166.444016 107.657402,159.779449 
	C116.822090,155.438507 125.600166,150.282410 134.563721,145.514572 
	C135.779175,144.868057 137.066284,144.356232 139.019775,143.461731 
	C139.019775,160.417480 139.019775,176.479294 139.019775,192.418427 
	C151.190002,192.418427 162.912216,192.418427 174.602478,192.418427 
	C174.602478,139.554520 174.602478,87.112419 174.602478,34.489204 
	C162.628372,34.489204 150.908600,34.489204 138.615112,34.489204 
	C139.526031,52.660252 129.568069,63.097496 114.278908,69.928757 
	C104.717041,74.201042 95.337593,78.881599 84.838928,83.175873 
	C84.138779,83.113167 83.438622,83.050461 82.439796,82.093063 
z"/>
<path fill="#FBFBFB" opacity="1.000000" stroke="none" 
	d="
M85.876289,83.378952 
	C95.337593,78.881599 104.717041,74.201042 114.278908,69.928757 
	C129.568069,63.097496 139.526031,52.660252 138.615112,34.489204 
	C150.908600,34.489204 162.628372,34.489204 174.602478,34.489204 
	C174.602478,87.112419 174.602478,139.554520 174.602478,192.418427 
	C162.912216,192.418427 151.190002,192.418427 139.019775,192.418427 
	C139.019775,176.479294 139.019775,160.417480 139.019775,143.461731 
	C137.066284,144.356232 135.779175,144.868057 134.563721,145.514572 
	C125.600166,150.282410 116.822090,155.438507 107.657402,159.779449 
	C93.586967,166.444016 81.274673,174.163452 82.505188,192.559937 
	C71.456947,192.559937 61.053501,192.559937 50.326958,192.559937 
	C50.326958,139.771271 50.326958,87.219421 50.326958,34.442543 
	C61.005119,34.442543 71.412987,34.442543 82.439796,34.442543 
	C82.439796,50.497253 82.439796,66.295158 82.468231,82.913132 
	C83.623199,83.615120 84.749748,83.497040 85.876289,83.378952 
M148.110703,48.142399 
	C144.462738,62.194763 135.194427,71.467506 122.614037,77.784782 
	C113.413551,82.404816 103.903114,86.433136 94.853958,91.323151 
	C80.346611,99.162689 71.294380,111.497192 66.984642,127.359299 
	C66.549210,128.961929 66.149719,130.575912 65.791328,132.197388 
	C65.479149,133.609772 65.248627,135.040207 65.164268,135.490295 
	C71.252708,130.193863 77.179489,124.092705 84.038605,119.335938 
	C90.957184,114.537933 98.839020,111.142067 106.230186,107.009132 
	C116.072853,101.505363 126.262100,96.488983 135.550934,90.160210 
	C147.543213,81.989510 151.955688,69.694389 151.038544,55.416931 
	C150.858032,52.606831 150.349564,49.817791 149.915970,46.431778 
	C149.471085,46.210976 149.026215,45.990173 148.581329,45.769375 
	C148.440567,46.317909 148.299805,46.866447 148.110703,48.142399 
M155.910065,46.290409 
	C155.062759,44.934727 154.215469,43.579048 153.368179,42.223370 
	C152.898224,42.499016 152.428268,42.774662 151.958328,43.050308 
	C152.622406,44.361309 153.286499,45.672310 153.969879,47.811672 
	C159.632599,71.390007 153.734344,85.947807 133.123367,99.119095 
	C130.462082,100.819771 127.741570,102.453705 124.932892,103.892944 
	C116.197708,108.369080 107.100075,112.228958 98.724937,117.290695 
	C90.531792,122.242424 82.173180,127.492691 75.453003,134.184402 
	C63.274082,146.311722 62.004444,171.172089 71.708733,184.810074 
	C70.956116,177.646744 73.769707,171.819229 78.820183,167.425354 
	C84.314880,162.644989 90.157295,158.112717 96.380730,154.354218 
	C108.053154,147.304947 120.512482,141.504135 131.883209,134.026382 
	C141.673660,127.587868 151.298813,120.398331 159.384644,111.990250 
	C170.182404,100.762115 173.102478,86.462723 167.854309,71.600769 
	C164.840149,63.065102 160.015305,55.168831 155.910065,46.290409 
z"/>
<path fill="#292929" opacity="1.000000" stroke="none" 
	d="
M85.357605,83.277420 
	C84.749748,83.497040 83.623199,83.615120 82.617569,83.360474 
	C83.438622,83.050461 84.138779,83.113167 85.357605,83.277420 
z"/>
<path fill="#333233" opacity="1.000000" stroke="none" 
	d="
M156.005569,46.984726 
	C160.015305,55.168831 164.840149,63.065102 167.854309,71.600769 
	C173.102478,86.462723 170.182404,100.762115 159.384644,111.990250 
	C151.298813,120.398331 141.673660,127.587868 131.883209,134.026382 
	C120.512482,141.504135 108.053154,147.304947 96.380730,154.354218 
	C90.157295,158.112717 84.314880,162.644989 78.820183,167.425354 
	C73.769707,171.819229 70.956116,177.646744 71.708733,184.810074 
	C62.004444,171.172089 63.274082,146.311722 75.453003,134.184402 
	C82.173180,127.492691 90.531792,122.242424 98.724937,117.290695 
	C107.100075,112.228958 116.197708,108.369080 124.932892,103.892944 
	C127.741570,102.453705 130.462082,100.819771 133.123367,99.119095 
	C153.734344,85.947807 159.632599,71.390007 154.301636,47.358486 
	C155.090790,46.931774 155.548187,46.958252 156.005569,46.984726 
z"/>
<path fill="#343434" opacity="1.000000" stroke="none" 
	d="
M149.992355,47.019039 
	C150.349564,49.817791 150.858032,52.606831 151.038544,55.416931 
	C151.955688,69.694389 147.543213,81.989510 135.550934,90.160210 
	C126.262100,96.488983 116.072853,101.505363 106.230186,107.009132 
	C98.839020,111.142067 90.957184,114.537933 84.038605,119.335938 
	C77.179489,124.092705 71.252708,130.193863 65.164268,135.490295 
	C65.248627,135.040207 65.479149,133.609772 65.791328,132.197388 
	C66.149719,130.575912 66.549210,128.961929 66.984642,127.359299 
	C71.294380,111.497192 80.346611,99.162689 94.853958,91.323151 
	C103.903114,86.433136 113.413551,82.404816 122.614037,77.784782 
	C135.194427,71.467506 144.462738,62.194763 148.435150,47.644272 
	C149.170532,47.103779 149.581436,47.061409 149.992355,47.019039 
z"/>
<path fill="#F0F0F0" opacity="1.000000" stroke="none" 
	d="
M155.957825,46.637566 
	C155.548187,46.958252 155.090790,46.931774 154.291992,46.944305 
	C153.286499,45.672310 152.622406,44.361309 151.958328,43.050308 
	C152.428268,42.774662 152.898224,42.499016 153.368179,42.223370 
	C154.215469,43.579048 155.062759,44.934727 155.957825,46.637566 
z"/>
<path fill="#F0F0F0" opacity="1.000000" stroke="none" 
	d="
M149.954163,46.725410 
	C149.581436,47.061409 149.170532,47.103779 148.459320,47.280567 
	C148.299805,46.866447 148.440567,46.317909 148.581329,45.769375 
	C149.026215,45.990173 149.471085,46.210976 149.954163,46.725410 
z"/>
</svg>